<svg xmlns="http://www.w3.org/2000/svg" width="512" height="512" viewBox="0 0 32 32" fill="none">
    <defs>
        <linearGradient id="logoGradient" x1="0" y1="0" x2="32" y2="32" gradientUnits="userSpaceOnUse">
            <stop offset="0%" stop-color="#8b5cf6" />
            <stop offset="100%" stop-color="#06b6d4" />
        </linearGradient>
    </defs>
    <path d="M19 6H9c-2.76 0-5 2.24-5 5v7c0 2.76 2.24 5 5 5h1l1.5 3c.2.4.6.6 1 .6h.5c.6 0 1-.4 1-1v-2.6c3.38-.5 5-2.5 5-5.4V11c0-2.76-2.24-5-5-5z" fill="url(#logoGradient)" opacity="0.85"/>
    <path d="M23 11h-1v5c0 1.66-1.34 3-3 3h-4v1c0 1.66 1.34 3 3 3h6l3 3.5c.2.25.5.35.8.35.5 0 .9-.4.9-.9V21c1.66 0 3-1.34 3-3v-4c0-1.66-1.34-3-3-3z" fill="url(#logoGradient)" opacity="0.4"/>
    <circle cx="10" cy="14" r="1.2" fill="#ffffff"/>
    <circle cx="14" cy="14" r="1.2" fill="#ffffff"/>
    <circle cx="18" cy="14" r="1.2" fill="#ffffff"/>
</svg>
